<?xml version="1.0" encoding="UTF-8" standalone="no"?>
<!DOCTYPE svg PUBLIC "-//W3C//DTD SVG 20010904//EN"
              "http://www.w3.org/TR/2001/REC-SVG-20010904/DTD/svg10.dtd">

<svg xmlns="http://www.w3.org/2000/svg"
     width="0.736667in" height="0.226667in"
     viewBox="0 0 221 68">
  <path id="SoM"
  fill="white" stroke="white" stroke-width="1"
        d="M 35.41,50.00
           C 35.41,50.00 35.41,52.00 35.41,52.00
             34.96,51.34 34.50,50.85 34.05,50.52
             33.60,50.17 33.15,50.00 32.70,50.00
             32.00,50.00 31.45,50.18 31.05,50.55
             30.64,50.90 30.44,51.38 30.44,51.98
             30.44,52.52 30.57,52.92 30.83,53.20
             31.10,53.48 31.60,53.72 32.33,53.91
             32.33,53.91 33.09,54.03 33.09,54.03
             34.12,54.25 34.88,54.60 35.34,55.08
             35.81,55.56 36.05,56.21 36.05,57.03
             36.05,57.99 35.72,58.73 35.08,59.23
             34.43,59.75 33.49,60.00 32.27,60.00
             31.75,60.00 31.24,59.92 30.72,59.75
             30.20,59.59 29.68,59.34 29.16,59.00
             29.16,59.00 29.16,57.00 29.16,57.00
             29.72,57.69 30.25,58.20 30.75,58.52
             31.25,58.84 31.75,59.00 32.27,59.00
             33.00,59.00 33.58,58.83 34.00,58.48
             34.41,58.13 34.62,57.64 34.62,57.02
             34.62,56.45 34.48,56.01 34.19,55.72
             33.91,55.42 33.41,55.18 32.70,55.02
             32.70,55.02 31.92,54.89 31.92,54.89
             30.90,54.67 30.16,54.34 29.70,53.89
             29.24,53.45 29.02,52.84 29.02,52.09
             29.02,51.16 29.34,50.41 30.00,49.84
             30.66,49.28 31.53,49.00 32.62,49.00
             33.04,49.00 33.48,49.09 33.94,49.25
             34.41,49.42 34.89,49.67 35.41,50.00 Z
           M 44.77,59.00
           C 44.40,59.34 44.02,59.59 43.64,59.75
             43.27,59.92 42.88,60.00 42.47,60.00
             41.20,60.00 40.20,59.65 39.48,58.94
             38.77,58.23 38.42,57.25 38.42,56.00
             38.42,54.75 38.77,53.77 39.48,53.06
             40.20,52.36 41.20,52.00 42.47,52.00
             42.86,52.00 43.25,52.09 43.62,52.25
             44.00,52.41 44.38,52.66 44.77,53.00
             44.77,53.00 44.77,54.00 44.77,54.00
             44.41,53.65 44.05,53.39 43.69,53.23
             43.33,53.08 42.93,53.00 42.47,53.00
             41.62,53.00 40.97,53.26 40.52,53.78
             40.07,54.30 39.84,55.04 39.84,56.00
             39.84,56.96 40.07,57.70 40.53,58.22
             40.99,58.74 41.63,59.00 42.47,59.00
             42.94,59.00 43.36,58.92 43.73,58.77
             44.11,58.60 44.45,58.34 44.77,58.00
             44.77,58.00 44.77,59.00 44.77,59.00 Z
           M 53.70,55.08
           C 53.70,55.08 53.70,60.00 53.70,60.00
             53.70,60.00 52.34,60.00 52.34,60.00
             52.34,60.00 52.34,55.08 52.34,55.08
             52.34,54.36 52.21,53.84 51.95,53.50
             51.69,53.17 51.29,53.00 50.73,53.00
             50.11,53.00 49.62,53.22 49.28,53.66
             48.95,54.09 48.78,54.70 48.78,55.52
             48.78,55.52 48.78,60.00 48.78,60.00
             48.78,60.00 47.42,60.00 47.42,60.00
             47.42,60.00 47.42,49.00 47.42,49.00
             47.42,49.00 48.78,49.00 48.78,49.00
             48.78,49.00 48.78,53.25 48.78,53.25
             49.02,52.84 49.34,52.54 49.75,52.33
             50.16,52.11 50.66,52.00 51.22,52.00
             52.05,52.00 52.67,52.26 53.08,52.77
             53.49,53.28 53.70,54.05 53.70,55.08 Z
           M 59.52,53.00
           C 58.83,53.00 58.30,53.26 57.95,53.77
             57.61,54.27 57.44,55.01 57.44,56.00
             57.44,56.99 57.61,57.74 57.95,58.25
             58.30,58.75 58.83,59.00 59.52,59.00
             60.20,59.00 60.72,58.75 61.06,58.25
             61.41,57.74 61.59,56.99 61.59,56.00
             61.59,55.01 61.41,54.27 61.06,53.77
             60.72,53.26 60.20,53.00 59.52,53.00 Z
           M 59.52,52.00
           C 60.65,52.00 61.52,52.34 62.12,53.03
             62.73,53.71 63.03,54.70 63.03,56.00
             63.03,57.30 62.73,58.30 62.12,58.98
             61.53,59.66 60.66,60.00 59.52,60.00
             58.37,60.00 57.49,59.66 56.89,58.98
             56.30,58.30 56.00,57.30 56.00,56.00
             56.00,54.70 56.30,53.71 56.89,53.03
             57.49,52.34 58.37,52.00 59.52,52.00 Z
           M 68.52,53.00
           C 67.83,53.00 67.30,53.26 66.95,53.77
             66.61,54.27 66.44,55.01 66.44,56.00
             66.44,56.99 66.61,57.74 66.95,58.25
             67.30,58.75 67.83,59.00 68.52,59.00
             69.20,59.00 69.72,58.75 70.06,58.25
             70.41,57.74 70.59,56.99 70.59,56.00
             70.59,55.01 70.41,54.27 70.06,53.77
             69.72,53.26 69.20,53.00 68.52,53.00 Z
           M 68.52,52.00
           C 69.65,52.00 70.52,52.34 71.12,53.03
             71.73,53.71 72.03,54.70 72.03,56.00
             72.03,57.30 71.73,58.30 71.12,58.98
             70.53,59.66 69.66,60.00 68.52,60.00
             67.37,60.00 66.49,59.66 65.89,58.98
             65.30,58.30 65.00,57.30 65.00,56.00
             65.00,54.70 65.30,53.71 65.89,53.03
             66.49,52.34 67.37,52.00 68.52,52.00 Z
           M 77.69,57.22
           C 77.69,57.81 77.80,58.26 78.02,58.56
             78.23,58.86 78.56,59.00 79.00,59.00
             79.00,59.00 80.58,59.00 80.58,59.00
             80.58,59.00 80.58,60.00 80.58,60.00
             80.58,60.00 78.86,60.00 78.86,60.00
             78.05,60.00 77.43,59.76 76.98,59.28
             76.55,58.79 76.33,58.11 76.33,57.22
             76.33,57.22 76.33,50.00 76.33,50.00
             76.33,50.00 74.17,50.00 74.17,50.00
             74.17,50.00 74.17,49.00 74.17,49.00
             74.17,49.00 77.69,49.00 77.69,49.00
             77.69,49.00 77.69,57.22 77.69,57.22 Z
           M 95.52,53.00
           C 94.83,53.00 94.30,53.26 93.95,53.77
             93.61,54.27 93.44,55.01 93.44,56.00
             93.44,56.99 93.61,57.74 93.95,58.25
             94.30,58.75 94.83,59.00 95.52,59.00
             96.20,59.00 96.72,58.75 97.06,58.25
             97.41,57.74 97.59,56.99 97.59,56.00
             97.59,55.01 97.41,54.27 97.06,53.77
             96.72,53.26 96.20,53.00 95.52,53.00 Z
           M 95.52,52.00
           C 96.65,52.00 97.52,52.34 98.12,53.03
             98.73,53.71 99.03,54.70 99.03,56.00
             99.03,57.30 98.73,58.30 98.12,58.98
             97.53,59.66 96.66,60.00 95.52,60.00
             94.37,60.00 93.49,59.66 92.89,58.98
             92.30,58.30 92.00,57.30 92.00,56.00
             92.00,54.70 92.30,53.71 92.89,53.03
             93.49,52.34 94.37,52.00 95.52,52.00 Z
           M 107.78,49.00
           C 107.78,49.00 107.78,50.00 107.78,50.00
             107.78,50.00 106.25,50.00 106.25,50.00
             105.77,50.00 105.44,50.10 105.25,50.30
             105.06,50.48 104.97,50.82 104.97,51.30
             104.97,51.30 104.97,52.00 104.97,52.00
             104.97,52.00 107.78,52.00 107.78,52.00
             107.78,52.00 107.78,53.00 107.78,53.00
             107.78,53.00 104.97,53.00 104.97,53.00
             104.97,53.00 104.97,60.00 104.97,60.00
             104.97,60.00 103.62,60.00 103.62,60.00
             103.62,60.00 103.62,53.00 103.62,53.00
             103.62,53.00 101.42,53.00 101.42,53.00
             101.42,53.00 101.42,52.00 101.42,52.00
             101.42,52.00 103.62,52.00 103.62,52.00
             103.62,52.00 103.62,51.45 103.62,51.45
             103.62,50.61 103.83,49.99 104.23,49.59
             104.65,49.20 105.30,49.00 106.17,49.00
             106.17,49.00 107.78,49.00 107.78,49.00 Z
           M 118.62,49.00
           C 118.62,49.00 120.61,49.00 120.61,49.00
             120.61,49.00 122.50,54.53 122.50,54.53
             122.50,54.53 124.41,49.00 124.41,49.00
             124.41,49.00 126.39,49.00 126.39,49.00
             126.39,49.00 126.39,60.00 126.39,60.00
             126.39,60.00 125.02,60.00 125.02,60.00
             125.02,60.00 125.02,50.27 125.02,50.27
             125.02,50.27 123.06,56.00 123.06,56.00
             123.06,56.00 121.95,56.00 121.95,56.00
             121.95,56.00 120.00,50.27 120.00,50.27
             120.00,50.27 120.00,60.00 120.00,60.00
             120.00,60.00 118.62,60.00 118.62,60.00
             118.62,60.00 118.62,49.00 118.62,49.00 Z
           M 131.52,53.00
           C 130.83,53.00 130.30,53.26 129.95,53.77
             129.61,54.27 129.44,55.01 129.44,56.00
             129.44,56.99 129.61,57.74 129.95,58.25
             130.30,58.75 130.83,59.00 131.52,59.00
             132.20,59.00 132.72,58.75 133.06,58.25
             133.41,57.74 133.59,56.99 133.59,56.00
             133.59,55.01 133.41,54.27 133.06,53.77
             132.72,53.26 132.20,53.00 131.52,53.00 Z
           M 131.52,52.00
           C 132.65,52.00 133.52,52.34 134.12,53.03
             134.73,53.71 135.03,54.70 135.03,56.00
             135.03,57.30 134.73,58.30 134.12,58.98
             133.53,59.66 132.66,60.00 131.52,60.00
             130.37,60.00 129.49,59.66 128.89,58.98
             128.30,58.30 128.00,57.30 128.00,56.00
             128.00,54.70 128.30,53.71 128.89,53.03
             129.49,52.34 130.37,52.00 131.52,52.00 Z
           M 140.50,50.00
           C 140.50,50.00 140.50,52.00 140.50,52.00
             140.50,52.00 143.56,52.00 143.56,52.00
             143.56,52.00 143.56,53.00 143.56,53.00
             143.56,53.00 140.50,53.00 140.50,53.00
             140.50,53.00 140.50,57.39 140.50,57.39
             140.50,58.00 140.61,58.42 140.84,58.66
             141.07,58.89 141.47,59.00 142.05,59.00
             142.05,59.00 143.56,59.00 143.56,59.00
             143.56,59.00 143.56,60.00 143.56,60.00
             143.56,60.00 141.91,60.00 141.91,60.00
             140.89,60.00 140.18,59.81 139.77,59.42
             139.36,59.03 139.16,58.35 139.16,57.39
             139.16,57.39 139.16,53.00 139.16,53.00
             139.16,53.00 136.95,53.00 136.95,53.00
             136.95,53.00 136.95,52.00 136.95,52.00
             136.95,52.00 139.16,52.00 139.16,52.00
             139.16,52.00 139.16,50.00 139.16,50.00
             139.16,50.00 140.50,50.00 140.50,50.00 Z
           M 149.52,53.00
           C 148.83,53.00 148.30,53.26 147.95,53.77
             147.61,54.27 147.44,55.01 147.44,56.00
             147.44,56.99 147.61,57.74 147.95,58.25
             148.30,58.75 148.83,59.00 149.52,59.00
             150.20,59.00 150.72,58.75 151.06,58.25
             151.41,57.74 151.59,56.99 151.59,56.00
             151.59,55.01 151.41,54.27 151.06,53.77
             150.72,53.26 150.20,53.00 149.52,53.00 Z
           M 149.52,52.00
           C 150.65,52.00 151.52,52.34 152.12,53.03
             152.73,53.71 153.03,54.70 153.03,56.00
             153.03,57.30 152.73,58.30 152.12,58.98
             151.53,59.66 150.66,60.00 149.52,60.00
             148.37,60.00 147.49,59.66 146.89,58.98
             146.30,58.30 146.00,57.30 146.00,56.00
             146.00,54.70 146.30,53.71 146.89,53.03
             147.49,52.34 148.37,52.00 149.52,52.00 Z
           M 162.45,54.00
           C 162.16,53.66 161.86,53.41 161.56,53.25
             161.27,53.09 160.95,53.00 160.59,53.00
             159.75,53.00 159.10,53.28 158.66,53.83
             158.22,54.38 158.00,55.18 158.00,56.23
             158.00,56.23 158.00,60.00 158.00,60.00
             158.00,60.00 156.66,60.00 156.66,60.00
             156.66,60.00 156.66,52.00 156.66,52.00
             156.66,52.00 158.00,52.00 158.00,52.00
             158.00,52.00 158.00,53.86 158.00,53.86
             158.23,53.26 158.57,52.80 159.03,52.48
             159.50,52.16 160.05,52.00 160.70,52.00
             161.02,52.00 161.33,52.09 161.62,52.25
             161.91,52.41 162.19,52.66 162.45,53.00
             162.45,53.00 162.45,54.00 162.45,54.00 Z
           M 164.88,52.00
           C 164.88,52.00 168.33,52.00 168.33,52.00
             168.33,52.00 168.33,59.00 168.33,59.00
             168.33,59.00 171.00,59.00 171.00,59.00
             171.00,59.00 171.00,60.00 171.00,60.00
             171.00,60.00 164.30,60.00 164.30,60.00
             164.30,60.00 164.30,59.00 164.30,59.00
             164.30,59.00 166.98,59.00 166.98,59.00
             166.98,59.00 166.98,53.00 166.98,53.00
             166.98,53.00 164.88,53.00 164.88,53.00
             164.88,53.00 164.88,52.00 164.88,52.00 Z
           M 166.98,49.00
           C 166.98,49.00 168.33,49.00 168.33,49.00
             168.33,49.00 168.33,51.00 168.33,51.00
             168.33,51.00 166.98,51.00 166.98,51.00
             166.98,51.00 166.98,49.00 166.98,49.00 Z
           M 179.70,55.08
           C 179.70,55.08 179.70,60.00 179.70,60.00
             179.70,60.00 178.34,60.00 178.34,60.00
             178.34,60.00 178.34,55.08 178.34,55.08
             178.34,54.36 178.21,53.84 177.95,53.50
             177.69,53.17 177.29,53.00 176.73,53.00
             176.11,53.00 175.62,53.22 175.28,53.66
             174.95,54.09 174.78,54.70 174.78,55.52
             174.78,55.52 174.78,60.00 174.78,60.00
             174.78,60.00 173.42,60.00 173.42,60.00
             173.42,60.00 173.42,52.00 173.42,52.00
             173.42,52.00 174.78,52.00 174.78,52.00
             174.78,52.00 174.78,53.25 174.78,53.25
             175.02,52.84 175.34,52.54 175.75,52.33
             176.16,52.11 176.66,52.00 177.22,52.00
             178.05,52.00 178.67,52.26 179.08,52.77
             179.49,53.28 179.70,54.05 179.70,55.08 Z
           M 187.28,56.00
           C 187.28,55.02 187.11,54.28 186.78,53.77
             186.46,53.26 185.98,53.00 185.36,53.00
             184.69,53.00 184.19,53.26 183.84,53.77
             183.50,54.28 183.33,55.02 183.33,56.00
             183.33,56.98 183.50,57.73 183.84,58.23
             184.20,58.75 184.70,59.00 185.36,59.00
             185.98,59.00 186.46,58.75 186.78,58.23
             187.11,57.71 187.28,56.97 187.28,56.00 Z
           M 188.62,59.48
           C 188.62,60.64 188.33,61.52 187.75,62.11
             187.16,62.70 186.31,63.00 185.19,63.00
             184.82,63.00 184.44,62.91 184.03,62.73
             183.62,62.57 183.22,62.32 182.81,62.00
             182.81,62.00 182.81,61.00 182.81,61.00
             183.29,61.34 183.72,61.59 184.11,61.75
             184.50,61.91 184.86,62.00 185.19,62.00
             185.91,62.00 186.45,61.81 186.78,61.44
             187.11,61.06 187.28,60.47 187.28,59.66
             187.28,59.66 187.28,58.77 187.28,58.77
             187.06,59.18 186.77,59.50 186.39,59.70
             186.02,59.90 185.58,60.00 185.05,60.00
             184.10,60.00 183.34,59.64 182.77,58.92
             182.19,58.20 181.91,57.22 181.91,56.00
             181.91,54.78 182.19,53.81 182.77,53.09
             183.34,52.37 184.10,52.00 185.05,52.00
             185.58,52.00 186.02,52.09 186.39,52.28
             186.75,52.47 187.05,52.76 187.28,53.14
             187.28,53.14 187.28,52.00 187.28,52.00
             187.28,52.00 188.62,52.00 188.62,52.00
             188.62,52.00 188.62,59.48 188.62,59.48 Z" />
  <path id="RIGHT"
    fill="white" stroke="white" stroke-width="1"
        d="M 30.84,24.00
           C 32.62,24.00 34.05,23.95 35.12,23.86
             36.20,23.77 37.01,23.57 37.56,23.27
             38.12,22.96 38.49,22.53 38.66,21.97
             38.82,21.41 38.91,20.68 38.91,19.78
             38.91,19.78 38.91,19.22 38.91,19.22
             38.91,18.32 38.82,17.61 38.66,17.06
             38.49,16.51 38.12,16.08 37.56,15.77
             37.01,15.45 36.20,15.23 35.12,15.14
             34.05,15.05 32.62,15.00 30.84,15.00
             30.84,15.00 17.89,15.00 17.89,15.00
             17.89,15.00 17.89,24.00 17.89,24.00
             17.89,24.00 30.84,24.00 30.84,24.00 Z
           M 49.39,42.00
           C 49.39,42.00 39.09,42.00 39.09,42.00
             39.09,42.00 39.09,39.06 39.09,39.06
             39.09,37.50 38.98,36.25 38.75,35.31
             38.52,34.38 38.04,33.67 37.30,33.19
             36.55,32.70 35.47,32.38 34.05,32.23
             32.62,32.08 30.71,32.00 28.31,32.00
             28.31,32.00 17.89,32.00 17.89,32.00
             17.89,32.00 17.89,42.00 17.89,42.00
             17.89,42.00 7.59,42.00 7.59,42.00
             7.59,42.00 7.59,7.00 7.59,7.00
             7.59,7.00 35.00,7.00 35.00,7.00
             37.89,7.00 40.27,7.18 42.12,7.53
             43.99,7.89 45.46,8.48 46.53,9.30
             47.61,10.12 48.36,11.21 48.77,12.56
             49.18,13.91 49.39,15.59 49.39,17.61
             49.39,17.61 49.39,18.86 49.39,18.86
             49.39,21.59 48.92,23.68 47.98,25.12
             47.05,26.57 45.48,27.56 43.25,28.09
             43.25,28.09 43.25,28.28 43.25,28.28
             44.49,28.49 45.51,28.75 46.31,29.06
             47.12,29.38 47.75,29.84 48.20,30.47
             48.66,31.09 48.97,31.89 49.14,32.88
             49.30,33.87 49.39,35.12 49.39,36.66
             49.39,36.66 49.39,42.00 49.39,42.00 Z
           M 67.08,42.00
           C 67.08,42.00 56.59,42.00 56.59,42.00
             56.59,42.00 56.59,7.00 56.59,7.00
             56.59,7.00 67.08,7.00 67.08,7.00
             67.08,7.00 67.08,42.00 67.08,42.00 Z
           M 96.42,42.00
           C 91.46,42.00 87.49,41.81 84.52,41.42
             81.55,41.04 79.27,40.24 77.67,39.03
             76.08,37.82 75.03,36.10 74.53,33.86
             74.04,31.62 73.80,28.66 73.80,24.98
             73.80,24.98 73.80,24.02 73.80,24.02
             73.80,21.56 73.90,19.42 74.11,17.61
             74.32,15.79 74.72,14.25 75.31,13.00
             75.91,11.75 76.73,10.73 77.77,9.94
             78.80,9.15 80.15,8.53 81.83,8.09
             83.50,7.65 85.54,7.36 87.94,7.22
             90.33,7.07 93.16,7.00 96.42,7.00
             96.42,7.00 98.03,7.00 98.03,7.00
             102.16,7.00 105.52,7.15 108.11,7.45
             110.69,7.76 112.72,8.32 114.19,9.16
             115.66,9.99 116.66,11.17 117.19,12.70
             117.73,14.23 118.00,16.18 118.00,18.58
             118.00,18.58 118.00,20.00 118.00,20.00
             118.00,20.00 107.89,20.00 107.89,20.00
             107.89,20.00 107.89,19.53 107.89,19.53
             107.89,18.69 107.77,17.97 107.52,17.38
             107.27,16.77 106.77,16.30 106.03,15.97
             105.29,15.64 104.25,15.39 102.91,15.23
             101.56,15.08 99.81,15.00 97.66,15.00
             97.66,15.00 96.80,15.00 96.80,15.00
             93.82,15.00 91.48,15.08 89.78,15.23
             88.08,15.39 86.82,15.79 86.00,16.42
             85.18,17.06 84.66,18.00 84.45,19.23
             84.24,20.48 84.14,22.16 84.14,24.30
             84.14,24.30 84.14,24.89 84.14,24.89
             84.14,26.98 84.24,28.62 84.45,29.83
             84.66,31.03 85.18,31.95 86.00,32.58
             86.82,33.21 88.08,33.61 89.78,33.77
             91.48,33.92 93.82,34.00 96.80,34.00
             96.80,34.00 97.66,34.00 97.66,34.00
             100.06,34.00 101.97,33.95 103.39,33.83
             104.82,33.71 105.90,33.50 106.64,33.19
             107.39,32.87 107.87,32.45 108.08,31.92
             108.29,31.40 108.39,30.71 108.39,29.84
             108.39,29.84 108.39,29.00 108.39,29.00
             108.39,29.00 94.75,29.00 94.75,29.00
             94.75,29.00 94.75,22.00 94.75,22.00
             94.75,22.00 118.38,22.00 118.38,22.00
             118.38,22.00 118.38,29.66 118.38,29.66
             118.38,32.17 118.10,34.21 117.56,35.80
             117.03,37.38 116.02,38.64 114.53,39.58
             113.04,40.51 110.97,41.14 108.33,41.48
             105.68,41.83 102.25,42.00 98.03,42.00
             98.03,42.00 96.42,42.00 96.42,42.00 Z
           M 168.55,42.00
           C 168.55,42.00 158.14,42.00 158.14,42.00
             158.14,42.00 158.14,29.00 158.14,29.00
             158.14,29.00 135.02,29.00 135.02,29.00
             135.02,29.00 135.02,42.00 135.02,42.00
             135.02,42.00 124.59,42.00 124.59,42.00
             124.59,42.00 124.59,7.00 124.59,7.00
             124.59,7.00 135.02,7.00 135.02,7.00
             135.02,7.00 135.02,20.00 135.02,20.00
             135.02,20.00 158.14,20.00 158.14,20.00
             158.14,20.00 158.14,7.00 158.14,7.00
             158.14,7.00 168.55,7.00 168.55,7.00
             168.55,7.00 168.55,42.00 168.55,42.00 Z
           M 198.47,42.00
           C 198.47,42.00 188.12,42.00 188.12,42.00
             188.12,42.00 188.12,15.00 188.12,15.00
             188.12,15.00 173.05,15.00 173.05,15.00
             173.05,15.00 173.05,7.00 173.05,7.00
             173.05,7.00 213.61,7.00 213.61,7.00
             213.61,7.00 213.61,15.00 213.61,15.00
             213.61,15.00 198.47,15.00 198.47,15.00
             198.47,15.00 198.47,42.00 198.47,42.00 Z" />
</svg>
